<svg width="16" height="16" viewBox="0 0 16 16" fill="none" xmlns="http://www.w3.org/2000/svg">
<path d="M0 0H16V16H0V0Z" fill="#A4BAFF"/>
<path d="M4.54228 9.62724L6.41299 7.86147L9.68086 11.291L7.81016 13.0567L4.54228 9.62724Z" fill="#340065"/>
<path d="M2.99526 5.43396V2.79245H10.4645V5.43396H2.99526Z" fill="#340065"/>
<path d="M10.4645 2.79245H10.8436C11.8906 2.79245 12.7393 3.6372 12.7393 4.67925V6.86793C12.7393 7.90997 11.8906 8.75472 10.8436 8.75472H10.4645V2.79245Z" fill="#340065"/>
<path d="M2.99526 5.43396H10.4645V6.22642H2.99526V5.43396Z" fill="#340065"/>
<path d="M2.99526 5.43396H9.70616V6.22642H2.99526V5.43396Z" fill="#A4BAFF"/>
<path d="M9.66825 5.43396H9.70616C10.125 5.43396 10.4645 5.77186 10.4645 6.18868V13.0566H9.66825V5.43396Z" fill="#A4BAFF"/>
<path d="M3.03318 8.75472V6.18868H9.32701C9.53641 6.18868 9.70616 6.35763 9.70616 6.56604V8.75472H3.03318Z" fill="#340065"/>
<path d="M7.81043 13.0566V10.4906H12.7014C12.7433 10.4906 12.7773 10.5244 12.7773 10.566V13.0566H7.81043Z" fill="#340065"/>
<path d="M2.99526 6.18868H5.57346V13.0566H2.99526V6.18868Z" fill="#340065"/>
</svg>
