<svg width="439" height="87" viewBox="0 0 439 87" fill="none" xmlns="http://www.w3.org/2000/svg">
<path d="M169.294 4V41.2937C169.105 41.1988 168.82 41.009 168.441 40.7243C166.355 39.4907 164.601 38.5892 163.179 38.0198C161.757 37.4505 160.05 37.1658 158.059 37.1658C153.413 37.1658 149.857 38.4943 147.392 41.1514C144.927 43.8084 143.694 47.5093 143.694 52.2541V81.2919H107V5.70811H143.694L142.841 15.8144H143.694C146.728 11.1646 150.047 8.03304 153.65 6.41982C157.348 4.80661 162.562 4 169.294 4Z" fill="#FAFAFA"/>
<path d="M209.734 43.1441C209.734 46.3706 210.54 49.0276 212.152 51.1153C213.763 53.203 216.134 54.2468 219.263 54.2468C222.581 54.2468 225.047 53.1556 226.658 50.973C228.27 48.7904 229.076 46.0859 229.076 42.8595C229.076 39.9177 228.176 37.4979 226.374 35.6C224.572 33.7021 222.202 32.7532 219.263 32.7532C216.418 32.7532 214.095 33.797 212.294 35.8847C210.587 37.8775 209.734 40.2973 209.734 43.1441ZM227.938 81.2919L229.076 71.3279H228.223C224.43 75.3135 220.827 78.2553 217.414 80.1532C214.095 82.0511 210.018 83 205.183 83C200.252 83 195.796 81.8613 191.813 79.5838C187.831 77.3063 184.465 74.2697 181.715 70.4739C178.966 66.6781 176.88 62.4553 175.458 57.8054C174.035 53.1556 173.324 48.5057 173.324 43.8559C173.324 39.0162 174.035 34.224 175.458 29.4793C176.88 24.7345 179.013 20.4643 181.858 16.6685C184.702 12.7778 188.163 9.69369 192.24 7.41621C196.412 5.13874 201.058 4 206.178 4C215.66 4 223.008 7.55856 228.223 14.6757H229.076L227.938 5.70811H263.921V81.2919H227.938Z" fill="#FAFAFA"/>
<path d="M303.886 5.70811L302.749 19.0883H303.886C305.404 14.5333 308.201 10.8799 312.278 8.12793C316.355 5.37598 320.859 4 325.789 4C331.194 4 335.745 5.42342 339.443 8.27027C343.141 11.0222 345.795 14.9604 347.407 20.0847H348.261C350.441 14.6757 353.381 10.6426 357.079 7.98559C360.776 5.32853 365.47 4 371.159 4C379.692 4 386.14 6.84685 390.501 12.5405C394.958 18.2342 397.186 25.4937 397.186 34.3189V81.2919H361.63V43.8559C361.63 40.7243 361.298 38.2571 360.634 36.4541C360.065 34.651 358.596 33.7495 356.225 33.7495C353.95 33.7495 352.48 34.651 351.816 36.4541C351.247 38.2571 350.963 40.7243 350.963 43.8559V81.2919H315.407V43.8559C315.407 40.7243 315.075 38.2571 314.411 36.4541C313.842 34.651 312.373 33.7495 310.002 33.7495C307.727 33.7495 306.257 34.651 305.593 36.4541C305.024 38.2571 304.74 40.7243 304.74 43.8559V81.2919H269.184V5.70811H303.886Z" fill="#FAFAFA"/>
<path fill-rule="evenodd" clip-rule="evenodd" d="M402.306 5.70811V81.2919H439V5.70811H402.306Z" fill="#FAFAFA"/>
<path d="M0 0H87V87H0V0Z" fill="#FAFAFA"/>
<path d="M24.6987 52.3481L34.8706 42.7468L52.6397 61.3946L42.4677 70.996L24.6987 52.3481Z" fill="#350066"/>
<path d="M16.2867 29.5472V15.184H56.9005V29.5472H16.2867Z" fill="#350066"/>
<path d="M56.9005 15.184H58.9621C64.6551 15.184 69.2701 19.7773 69.2701 25.4434V37.3443C69.2701 43.0105 64.6551 47.6038 58.9621 47.6038H56.9005V15.184Z" fill="#350066"/>
<path d="M16.2867 29.5472H56.9005V33.8561H16.2867V29.5472Z" fill="#350066"/>
<path d="M16.2867 29.5472H52.7772V33.8561H16.2867V29.5472Z" fill="#FAFAFA"/>
<path d="M52.5711 29.5472H52.7772C55.0544 29.5472 56.9005 31.3845 56.9005 33.6509V70.9953H52.5711V29.5472Z" fill="#FAFAFA"/>
<path d="M16.4929 47.6038V33.6509H50.7156C51.8542 33.6509 52.7772 34.5696 52.7772 35.7028V47.6038H16.4929Z" fill="#350066"/>
<path d="M42.4692 70.9953V57.0425H69.064C69.2917 57.0425 69.4763 57.2262 69.4763 57.4528V70.9953H42.4692Z" fill="#350066"/>
<path d="M16.2867 33.6509H30.3057V70.9953H16.2867V33.6509Z" fill="#350066"/>
</svg>
